<svg width="252" height="29" viewBox="0 0 252 29" fill="none" xmlns="http://www.w3.org/2000/svg">
<path d="M48.1523 6.09987C47.2949 6.09987 46.6089 6.80326 46.6089 7.66548C46.6089 8.5277 47.3023 9.2311 48.1523 9.2311C49.0023 9.2311 49.6958 8.5277 49.6958 7.66548C49.6958 6.80326 49.0023 6.09987 48.1523 6.09987Z" fill="white"/>
<path d="M41.2702 8.11172C37.6912 8.11172 34.7759 11.069 34.7759 14.6994C34.7759 18.3298 37.6912 21.2871 41.2702 21.2871C44.8492 21.2871 47.7646 18.3298 47.7646 14.6994C47.7646 11.069 44.8492 8.11172 41.2702 8.11172ZM41.2702 18.9197C38.9737 18.9197 37.1097 17.0289 37.1097 14.6994C37.1097 12.3699 38.9737 10.479 41.2702 10.479C43.5667 10.479 45.4308 12.3699 45.4308 14.6994C45.4308 17.0289 43.5667 18.9197 41.2702 18.9197Z" fill="white"/>
<path d="M46.4299 28.079H35.8943C31.5249 28.079 27.9683 24.4712 27.9683 20.0391V9.35211C27.9683 4.91999 31.5249 1.31227 35.8943 1.31227H46.4299C50.7993 1.31227 54.3559 4.91999 54.3559 9.35211V20.0391C54.3559 24.4712 50.7993 28.079 46.4299 28.079ZM35.9017 3.83843C32.9043 3.83843 30.4587 6.31164 30.4587 9.35967V20.0467C30.4587 23.0872 32.8969 25.5679 35.9017 25.5679H46.4374C49.4348 25.5679 51.8804 23.0947 51.8804 20.0467V9.35967C51.8804 6.31921 49.4423 3.83843 46.4374 3.83843H35.9017Z" fill="white"/>
<path d="M13.205 16.3709L13.9357 11.5304H9.35757V8.384C9.35757 7.06041 9.9988 5.76708 12.0493 5.76708H14.1296V1.64505C14.1296 1.64505 12.2357 1.31983 10.4313 1.31983C6.65841 1.31983 4.1904 3.64178 4.1904 7.83944V11.5304H0V16.3709H4.1904V28.079H9.35011V16.3709H13.205Z" fill="white"/>
<path d="M81.8643 2.74669C83.6031 2.74669 85.1115 3.08737 86.3894 3.76872C87.6883 4.42878 88.6834 5.36564 89.3747 6.57929C90.066 7.79295 90.4117 9.20888 90.4117 10.8271C90.4117 11.8704 90.2755 12.9137 90.0032 13.957C89.5004 15.9798 88.7148 17.5448 87.6464 18.652C86.5779 19.7592 85.3105 20.3128 83.844 20.3128C83.1317 20.3128 82.5137 20.185 81.99 19.9295C81.4872 19.674 81.1101 19.3014 80.8587 18.8117C80.7958 18.7052 80.733 18.7052 80.6701 18.8117C80.2302 19.2588 79.7169 19.6101 79.1303 19.8656C78.5647 20.1211 77.999 20.2489 77.4334 20.2489C76.2812 20.2489 75.3699 19.9508 74.6995 19.3546C74.05 18.7372 73.7253 17.9493 73.7253 16.9912C73.7253 16.4163 73.8719 15.554 74.1652 14.4042C74.4376 13.2544 74.7414 12.3495 75.0766 11.6894C75.5165 10.6887 76.1659 9.91153 77.0249 9.35793C77.8838 8.80433 78.7847 8.52753 79.7274 8.52753C80.7958 8.52753 81.571 8.87885 82.0528 9.5815C82.0947 9.62408 82.1261 9.63473 82.1471 9.61344C82.189 9.59214 82.2099 9.5602 82.2099 9.51762L82.3356 8.97467C82.3985 8.78304 82.5137 8.68722 82.6813 8.68722H84.1268C84.2316 8.68722 84.3049 8.72981 84.3468 8.81498C84.3887 8.87885 84.3992 8.95338 84.3782 9.03855L82.7756 15.4581C82.6918 15.7349 82.6499 16.0543 82.6499 16.4163C82.6499 16.9912 82.7965 17.4596 83.0898 17.8216C83.3831 18.1623 83.7811 18.3326 84.2839 18.3326C85.08 18.3326 85.7923 17.96 86.4208 17.2148C87.0493 16.4695 87.5311 15.4156 87.8663 14.0529C88.1177 12.9883 88.2434 12.0088 88.2434 11.1145C88.2434 9.11307 87.6359 7.54809 86.4208 6.4196C85.2057 5.29112 83.5612 4.72687 81.4872 4.72687C79.8112 4.72687 78.1876 5.12078 76.6164 5.90859C75.0451 6.67511 73.6939 7.82489 72.5626 9.35793C71.4313 10.8697 70.6876 12.6795 70.3315 14.7874C70.1848 15.5114 70.1115 16.2566 70.1115 17.0231C70.1115 19.0885 70.6876 20.7386 71.8398 21.9736C72.9921 23.2085 74.6052 23.826 76.6792 23.826C77.7057 23.826 78.6904 23.6982 79.6331 23.4427C80.5758 23.2085 81.3196 22.9104 81.8643 22.5485C82.0318 22.4207 82.168 22.442 82.2728 22.6123L82.9327 23.5705L82.9955 23.7302C82.9955 23.8366 82.9327 23.9325 82.807 24.0176C82.0318 24.5712 81.0367 25.0184 79.8217 25.359C78.6066 25.6997 77.381 25.87 76.145 25.87C74.469 25.87 73.0235 25.5187 71.8084 24.8161C70.5933 24.1134 69.6611 23.1127 69.0116 21.8139C68.3622 20.515 68.0375 19.0033 68.0375 17.2786C68.0375 16.3631 68.1317 15.4156 68.3203 14.4361C68.7812 12.0727 69.6925 10.0073 71.0542 8.24009C72.4369 6.47283 74.0814 5.12078 75.9879 4.18392C77.8943 3.22577 79.8531 2.74669 81.8643 2.74669ZM77.6848 18.3965C78.2504 18.3965 78.7532 18.2261 79.1932 17.8855C79.6541 17.5235 80.0102 17.0764 80.2616 16.5441C80.4501 16.2247 80.5968 15.8521 80.7015 15.4262L81.0786 13.957C81.2043 13.4247 81.2777 13.0415 81.2986 12.8073C81.3405 12.5731 81.3615 12.3282 81.3615 12.0727C81.3615 11.583 81.1939 11.1784 80.8587 10.859C80.5444 10.5396 80.1254 10.38 79.6017 10.38C79.036 10.38 78.5123 10.5503 78.0305 10.891C77.5486 11.2316 77.1715 11.6575 76.8992 12.1685C76.6478 12.7008 76.4069 13.4673 76.1764 14.4681C75.925 15.341 75.7993 15.9372 75.7993 16.2566L75.8307 16.5441C75.7889 17.0976 75.9355 17.5448 76.2707 17.8855C76.6268 18.2261 77.0982 18.3965 77.6848 18.3965Z" fill="white"/>
<path d="M100.023 23.1553C98.0118 23.1553 96.4091 22.591 95.215 21.4626C94.0209 20.3341 93.4238 18.8117 93.4238 16.8954C93.4238 16.6825 93.4448 16.3205 93.4867 15.8095L94.4608 7.63326C94.6284 6.1641 95.0893 4.87592 95.8435 3.76872C96.6186 2.66153 97.6033 1.80984 98.7974 1.21366C99.9915 0.596182 101.322 0.287445 102.788 0.287445C104.129 0.287445 105.292 0.542952 106.276 1.05396C107.282 1.56498 108.057 2.27827 108.602 3.19383C109.147 4.0881 109.419 5.11013 109.419 6.25991C109.419 6.47283 109.398 6.79222 109.356 7.21806L109.325 7.56938C109.283 7.7823 109.167 7.88877 108.979 7.88877H106.654C106.57 7.88877 106.496 7.85683 106.434 7.79295C106.392 7.72907 106.381 7.65455 106.402 7.56938L106.434 7.28194C106.455 7.13289 106.465 6.91997 106.465 6.64317C106.465 5.53598 106.109 4.65235 105.397 3.99229C104.684 3.31094 103.71 2.97026 102.474 2.97026C101.112 2.97026 99.9706 3.38546 99.0488 4.21586C98.127 5.04626 97.5823 6.15345 97.4147 7.53744L96.4091 15.9053C96.3882 16.0756 96.3777 16.3098 96.3777 16.6079C96.3777 17.779 96.7443 18.7159 97.4776 19.4185C98.2318 20.1211 99.2373 20.4725 100.494 20.4725C101.814 20.4725 102.914 20.1105 103.794 19.3866C104.674 18.6413 105.187 17.63 105.334 16.3524L105.648 13.8932C105.648 13.808 105.606 13.7654 105.522 13.7654H101.406C101.196 13.7654 101.112 13.659 101.154 13.446L101.374 11.4659C101.395 11.3807 101.437 11.3062 101.5 11.2423C101.563 11.1784 101.636 11.1465 101.72 11.1465H108.602C108.686 11.1465 108.748 11.1784 108.79 11.2423C108.853 11.3062 108.874 11.3807 108.853 11.4659L108.35 15.522C108.057 17.9706 107.167 19.855 105.679 21.1751C104.192 22.4952 102.306 23.1553 100.023 23.1553Z" fill="white"/>
<path d="M120.315 6.48348C120.964 6.48348 121.54 6.62188 122.043 6.89868C122.19 6.96255 122.221 7.09031 122.137 7.28194L121.352 9.67731C121.289 9.86894 121.163 9.93282 120.975 9.86894C120.639 9.7199 120.241 9.64537 119.78 9.64537L119.34 9.67731C118.398 9.7199 117.57 10.0712 116.858 10.7313C116.167 11.37 115.758 12.2111 115.632 13.2544L114.501 22.5804C114.459 22.7933 114.344 22.8998 114.155 22.8998H111.83C111.62 22.8998 111.537 22.7933 111.579 22.5804L113.464 6.96255C113.506 6.74963 113.621 6.64317 113.81 6.64317H116.104C116.208 6.64317 116.282 6.67511 116.324 6.73899C116.387 6.80286 116.407 6.87739 116.387 6.96255L116.167 8.65529C116.167 8.71916 116.177 8.76175 116.198 8.78304C116.24 8.78304 116.271 8.76175 116.292 8.71916C117.382 7.22871 118.722 6.48348 120.315 6.48348Z" fill="white"/>
<path d="M134.027 6.96255C134.027 6.87739 134.058 6.80286 134.121 6.73899C134.184 6.67511 134.268 6.64317 134.372 6.64317H136.635C136.74 6.64317 136.813 6.67511 136.855 6.73899C136.918 6.80286 136.939 6.87739 136.918 6.96255L135.032 22.5804C134.99 22.7933 134.875 22.8998 134.687 22.8998H132.393C132.183 22.8998 132.099 22.7933 132.141 22.5804L132.267 21.3987C132.288 21.3561 132.277 21.3348 132.236 21.3348C132.215 21.3135 132.183 21.3242 132.141 21.3667C131.178 22.5378 129.847 23.1233 128.15 23.1233C126.747 23.1233 125.574 22.7294 124.631 21.9416C123.688 21.1538 123.217 20.0466 123.217 18.62C123.217 18.2794 123.227 18.0239 123.248 17.8535L124.568 6.96255C124.61 6.74963 124.725 6.64317 124.914 6.64317H127.208C127.291 6.64317 127.354 6.67511 127.396 6.73899C127.459 6.80286 127.48 6.87739 127.459 6.96255L126.265 16.8954C126.244 17.0444 126.233 17.2573 126.233 17.5341C126.233 18.4497 126.474 19.1736 126.956 19.7059C127.438 20.217 128.129 20.4725 129.03 20.4725C130.057 20.4725 130.905 20.1531 131.576 19.5143C132.267 18.8543 132.675 17.9813 132.801 16.8954L134.027 6.96255Z" fill="white"/>
<path d="M153.336 10.7313C153.483 11.3488 153.556 12.0833 153.556 12.935C153.556 13.5951 153.514 14.2232 153.43 14.8194C153.242 16.3311 152.917 17.6193 152.456 18.6839C151.848 20.1105 151.01 21.2177 149.942 22.0055C148.874 22.772 147.585 23.1553 146.077 23.1553C145.365 23.1553 144.715 23.0169 144.128 22.7401C143.563 22.442 143.091 22.0268 142.714 21.4945C142.672 21.4519 142.631 21.4413 142.589 21.4626C142.568 21.4838 142.557 21.5158 142.557 21.5584L141.677 28.6806C141.635 28.8935 141.52 29 141.332 29H139.038C138.933 29 138.849 28.9681 138.786 28.9042C138.744 28.8403 138.734 28.7658 138.755 28.6806L141.395 6.96255C141.395 6.87739 141.426 6.80286 141.489 6.73899C141.552 6.67511 141.635 6.64317 141.74 6.64317H144.034C144.223 6.64317 144.317 6.74963 144.317 6.96255L144.191 8.01652C144.17 8.0591 144.17 8.09104 144.191 8.11233C144.233 8.13363 144.275 8.12298 144.317 8.0804C144.82 7.5268 145.396 7.1116 146.045 6.8348C146.695 6.53671 147.376 6.38766 148.088 6.38766C149.554 6.38766 150.728 6.77092 151.608 7.53744C152.487 8.28267 153.064 9.34728 153.336 10.7313ZM148.999 18.9714C149.774 17.9493 150.267 16.5441 150.476 14.7555C150.539 14.1806 150.571 13.659 150.571 13.1905C150.571 12.2324 150.445 11.4339 150.193 10.7952C149.984 10.2203 149.649 9.78377 149.188 9.48568C148.727 9.18759 148.161 9.03855 147.491 9.03855C146.339 9.03855 145.375 9.61344 144.6 10.7632C143.992 11.7001 143.594 13.0415 143.406 14.7874C143.322 15.6391 143.28 16.214 143.28 16.5121C143.28 17.4277 143.416 18.2155 143.689 18.8756C144.149 19.9615 144.946 20.5044 146.077 20.5044C147.271 20.5044 148.245 19.9934 148.999 18.9714Z" fill="white"/>
<path d="M162.391 23.1553C160.883 23.1553 159.615 22.7614 158.589 21.9736C157.583 21.1645 156.944 20.0466 156.672 18.62C156.546 18.0026 156.483 17.2893 156.483 16.4802C156.483 15.884 156.515 15.2985 156.577 14.7236C156.787 13.1692 157.122 11.8917 157.583 10.891C158.191 9.48568 159.102 8.38913 160.317 7.60132C161.532 6.79222 162.915 6.38766 164.465 6.38766C165.932 6.38766 167.157 6.79222 168.142 7.60132C169.126 8.38913 169.765 9.47504 170.059 10.859C170.184 11.4552 170.247 12.1366 170.247 12.9031C170.247 13.478 170.216 14.0742 170.153 14.6916C169.985 16.1821 169.65 17.4916 169.147 18.62C168.519 20.0466 167.608 21.1645 166.413 21.9736C165.219 22.7614 163.878 23.1553 162.391 23.1553ZM162.705 20.5044C163.543 20.5044 164.297 20.2702 164.968 19.8018C165.638 19.312 166.151 18.6307 166.508 17.7577C166.843 16.8421 167.073 15.8414 167.199 14.7555C167.283 13.8186 167.325 13.1586 167.325 12.7753C167.325 12.4985 167.304 12.1685 167.262 11.7852C167.094 10.9123 166.728 10.2416 166.162 9.77313C165.617 9.28341 164.915 9.03855 164.057 9.03855C163.219 9.03855 162.464 9.28341 161.794 9.77313C161.124 10.2416 160.6 10.9123 160.223 11.7852C159.929 12.5092 159.699 13.4993 159.531 14.7555C159.469 15.3304 159.437 15.884 159.437 16.4163C159.437 16.9273 159.469 17.3744 159.531 17.7577C159.657 18.6094 160.003 19.2801 160.568 19.7698C161.134 20.2595 161.846 20.5044 162.705 20.5044Z" fill="white"/>
<path d="M186.308 22.8998C186.245 22.8998 186.182 22.8785 186.119 22.8359C186.056 22.7933 186.014 22.7294 185.994 22.6443L185.334 18.9075C185.334 18.8436 185.302 18.8117 185.239 18.8117H176.66C176.598 18.8117 176.556 18.8436 176.535 18.9075L174.995 22.6443C174.89 22.8146 174.754 22.8998 174.586 22.8998H172.104C171.999 22.8998 171.926 22.8678 171.884 22.804C171.863 22.7401 171.873 22.6549 171.915 22.5485L181.217 0.798457C181.322 0.628119 181.458 0.54295 181.626 0.54295H184.674C184.737 0.54295 184.799 0.564243 184.862 0.606828C184.925 0.649412 184.967 0.713288 184.988 0.798457L189.105 22.5485V22.6123C189.105 22.804 189.01 22.8998 188.822 22.8998H186.308ZM177.603 16.2247C177.582 16.2673 177.582 16.3098 177.603 16.3524C177.645 16.3737 177.687 16.3844 177.729 16.3844H184.737C184.778 16.3844 184.81 16.3737 184.831 16.3524C184.873 16.3098 184.883 16.2673 184.862 16.2247L182.757 4.37555C182.757 4.33297 182.736 4.31167 182.694 4.31167C182.652 4.31167 182.61 4.33297 182.568 4.37555L177.603 16.2247Z" fill="white"/>
<path d="M192.509 22.8998C192.299 22.8998 192.215 22.7933 192.257 22.5804L194.866 0.862333C194.907 0.649411 195.023 0.54295 195.211 0.54295H197.537C197.746 0.54295 197.83 0.649411 197.788 0.862333L195.18 22.5804C195.138 22.7933 195.023 22.8998 194.834 22.8998H192.509Z" fill="white"/>
<path d="M213.14 12.5198C213.14 13.2651 213.056 14.319 212.889 15.6817C212.868 15.8946 212.753 16.0011 212.543 16.0011H202.801C202.718 16.0011 202.676 16.0437 202.676 16.1289C202.634 16.6399 202.613 16.9805 202.613 17.1509C202.613 17.3638 202.634 17.5767 202.676 17.7896C202.781 18.6413 203.137 19.312 203.744 19.8018C204.373 20.2702 205.211 20.5044 206.258 20.5044C207.746 20.5044 208.982 19.855 209.966 18.5562C210.092 18.3432 210.228 18.3113 210.375 18.4604L211.977 19.674C212.103 19.8018 212.114 19.9402 212.009 20.0892C211.318 21.0686 210.417 21.8352 209.306 22.3888C208.196 22.9211 206.981 23.1872 205.661 23.1872C204.174 23.1872 202.969 22.8572 202.047 22.1971C201.126 21.5158 200.476 20.5363 200.099 19.2588C199.889 18.5349 199.785 17.6832 199.785 16.7037C199.785 16.2992 199.827 15.6285 199.91 14.6916C200.015 13.8825 200.12 13.2012 200.225 12.6476C200.35 12.094 200.507 11.5936 200.696 11.1465C201.241 9.67731 202.11 8.51689 203.304 7.6652C204.498 6.81351 205.881 6.38766 207.452 6.38766C209.463 6.38766 210.909 6.90932 211.789 7.95264C212.69 8.99596 213.14 10.5184 213.14 12.5198ZM207.138 9.03855C206.258 9.03855 205.504 9.27276 204.875 9.74119C204.268 10.1883 203.807 10.7952 203.493 11.5617C203.304 12.0301 203.147 12.6263 203.021 13.3502C203.001 13.4354 203.032 13.478 203.116 13.478H210.092C210.176 13.478 210.218 13.4354 210.218 13.3502C210.26 12.8392 210.281 12.4985 210.281 12.3282C210.281 11.3488 209.998 10.5609 209.432 9.96476C208.887 9.34728 208.123 9.03855 207.138 9.03855Z" fill="white"/>
<path d="M219.725 4.0881C219.201 4.0881 218.782 3.92841 218.468 3.60903C218.153 3.28965 217.996 2.87445 217.996 2.36344C217.996 1.68208 218.206 1.11784 218.625 0.670704C219.065 0.223568 219.599 0 220.227 0C220.751 0 221.17 0.159691 221.484 0.479074C221.799 0.777165 221.956 1.19236 221.956 1.72467C221.956 2.38473 221.736 2.94897 221.296 3.4174C220.856 3.86454 220.332 4.0881 219.725 4.0881ZM216.236 22.8678C216.027 22.8678 215.943 22.7614 215.985 22.5485L217.871 6.96255C217.871 6.87739 217.902 6.80286 217.965 6.73899C218.028 6.67511 218.101 6.64317 218.185 6.64317H220.51C220.699 6.64317 220.793 6.74963 220.793 6.96255L218.908 22.5485C218.866 22.7614 218.75 22.8678 218.562 22.8678H216.236Z" fill="white"/>
<path d="M222.366 22.8998C222.241 22.8998 222.157 22.8678 222.115 22.804C222.094 22.7188 222.115 22.623 222.178 22.5165L228.18 14.8833C228.222 14.8194 228.222 14.7555 228.18 14.6916L224.063 7.02643L224.032 6.89868C224.032 6.72834 224.126 6.64317 224.315 6.64317H226.797C226.944 6.64317 227.059 6.70705 227.143 6.8348L230.034 12.2963C230.055 12.3175 230.086 12.3282 230.128 12.3282C230.17 12.3282 230.202 12.3175 230.223 12.2963L234.402 6.8348C234.507 6.70705 234.643 6.64317 234.811 6.64317H237.45C237.576 6.64317 237.649 6.68576 237.67 6.77093C237.712 6.8348 237.691 6.91997 237.607 7.02643L231.637 14.6916C231.616 14.7342 231.605 14.7981 231.605 14.8833L235.753 22.5165C235.774 22.5378 235.785 22.5804 235.785 22.6443C235.785 22.7081 235.753 22.772 235.69 22.8359C235.649 22.8785 235.586 22.8998 235.502 22.8998H232.988C232.841 22.8998 232.726 22.8359 232.642 22.7082L229.783 17.2467C229.762 17.2041 229.73 17.1828 229.688 17.1828C229.646 17.1828 229.615 17.2041 229.594 17.2467L225.352 22.7082C225.268 22.8359 225.142 22.8998 224.975 22.8998H222.366Z" fill="white"/>
<path d="M244.144 23.1553C242.635 23.1553 241.368 22.7614 240.341 21.9736C239.336 21.1645 238.697 20.0466 238.425 18.62C238.299 18.0026 238.236 17.2893 238.236 16.4802C238.236 15.884 238.267 15.2985 238.33 14.7236C238.54 13.1692 238.875 11.8917 239.336 10.891C239.943 9.48568 240.855 8.38913 242.07 7.60132C243.285 6.79222 244.668 6.38766 246.218 6.38766C247.684 6.38766 248.91 6.79222 249.895 7.60132C250.879 8.38913 251.518 9.47504 251.811 10.859C251.937 11.4552 252 12.1366 252 12.9031C252 13.478 251.969 14.0742 251.906 14.6916C251.738 16.1821 251.403 17.4916 250.9 18.62C250.272 20.0466 249.36 21.1645 248.166 21.9736C246.972 22.7614 245.631 23.1553 244.144 23.1553ZM244.458 20.5044C245.296 20.5044 246.05 20.2702 246.721 19.8018C247.391 19.312 247.904 18.6307 248.26 17.7577C248.596 16.8421 248.826 15.8414 248.952 14.7555C249.036 13.8186 249.078 13.1586 249.078 12.7753C249.078 12.4985 249.057 12.1685 249.015 11.7852C248.847 10.9123 248.48 10.2416 247.915 9.77313C247.37 9.28341 246.668 9.03855 245.809 9.03855C244.971 9.03855 244.217 9.28341 243.547 9.77313C242.876 10.2416 242.353 10.9123 241.976 11.7852C241.682 12.5092 241.452 13.4993 241.284 14.7555C241.221 15.3304 241.19 15.884 241.19 16.4163C241.19 16.9273 241.221 17.3744 241.284 17.7577C241.41 18.6094 241.756 19.2801 242.321 19.7698C242.887 20.2595 243.599 20.5044 244.458 20.5044Z" fill="white"/>
</svg>
